# xmcd
#
# Track frame offsets:
#	150
#	12628
#	23919
#	36258
#	45804
#	55638
#	64869
#	75092
#	87868
#	101052
#	110525
#	122378
#	136164
#	147832
#	160793
#	172669
#	181880
#	194098
#	204835
#	216691
#
# Disc length: 3096 seconds
#
# Revision: 0
# Processed by: cddbd v1.5.1PL0 Copyright (c) Steve Scherf et al.
# Submitted via: dBpowerAMP V4.0
#
DISCID=040c1614
DTITLE=Jackie Wilson - The Brunswick Anthology [Disc 1]
DYEAR=1900
DGENRE=
TTITLE0=Reet Petite
TTITLE1=To Be Loved
TTITLE2=Lonely Teardrops
TTITLE3=That's Why (I Love You So)
TTITLE4=I'll Be Satisfied
TTITLE5=You Better Know It
TTITLE6=Talk That Talk
TTITLE7=Night
TTITLE8=Doggin' Around
TTITLE9=(You Were Made For) All My Love
TTITLE10=A Woman, A Lover, A Friend
TTITLE11=Alone At Last
TTITLE12=I Am The Man
TTITLE13=My Empty Arms
TTITLE14=The Tear Of The Year
TTITLE15=Please Tell Me Why
TTITLE16=Your One And Only Love
TTITLE17=I'm Coming On Back To You
TTITLE18=Years From Now
TTITLE19=You Don't Know What It Means
EXTD=
EXTT0=
EXTT1=
EXTT2=
EXTT3=
EXTT4=
EXTT5=
EXTT6=
EXTT7=
EXTT8=
EXTT9=
EXTT10=
EXTT11=
EXTT12=
EXTT13=
EXTT14=
EXTT15=
EXTT16=
EXTT17=
EXTT18=
EXTT19=
PLAYORDER=
